<mxfile host="app.diagrams.net" modified="2021-04-22T16:05:57.534Z" agent="5.0 (Macintosh; Intel Mac OS X 10_15_7) AppleWebKit/537.36 (KHTML, like Gecko) Chrome/90.0.4430.72 Safari/537.36" etag="zW2hOVg7sZb5FES6jXDU" version="14.6.5" type="github">
  <diagram id="GyscfNWIRmXNlC4TNhtk" name="Page-1">
    <mxGraphModel dx="1298" dy="808" grid="1" gridSize="10" guides="1" tooltips="1" connect="1" arrows="1" fold="1" page="1" pageScale="1" pageWidth="827" pageHeight="1169" math="0" shadow="0">
      <root>
        <mxCell id="0" />
        <mxCell id="1" parent="0" />
        <mxCell id="9y9cuDd97dtnEJHXF65n-9" style="edgeStyle=orthogonalEdgeStyle;rounded=0;orthogonalLoop=1;jettySize=auto;html=1;shape=link;startArrow=none;" edge="1" parent="1" source="9y9cuDd97dtnEJHXF65n-11">
          <mxGeometry relative="1" as="geometry">
            <mxPoint x="140" y="600" as="targetPoint" />
          </mxGeometry>
        </mxCell>
        <mxCell id="9y9cuDd97dtnEJHXF65n-6" value="App" style="shape=process;whiteSpace=wrap;html=1;backgroundOutline=1;" vertex="1" parent="1">
          <mxGeometry x="80" y="70" width="120" height="60" as="geometry" />
        </mxCell>
        <mxCell id="9y9cuDd97dtnEJHXF65n-10" style="edgeStyle=orthogonalEdgeStyle;shape=link;rounded=0;orthogonalLoop=1;jettySize=auto;html=1;startArrow=none;" edge="1" parent="1" source="9y9cuDd97dtnEJHXF65n-13">
          <mxGeometry relative="1" as="geometry">
            <mxPoint x="380" y="600" as="targetPoint" />
          </mxGeometry>
        </mxCell>
        <mxCell id="9y9cuDd97dtnEJHXF65n-7" value="yaya-user-inclass" style="shape=process;whiteSpace=wrap;html=1;backgroundOutline=1;" vertex="1" parent="1">
          <mxGeometry x="320" y="70" width="120" height="60" as="geometry" />
        </mxCell>
        <mxCell id="9y9cuDd97dtnEJHXF65n-8" value="yaya-das" style="shape=process;whiteSpace=wrap;html=1;backgroundOutline=1;" vertex="1" parent="1">
          <mxGeometry x="580" y="70" width="120" height="60" as="geometry" />
        </mxCell>
        <mxCell id="9y9cuDd97dtnEJHXF65n-15" style="edgeStyle=orthogonalEdgeStyle;rounded=0;orthogonalLoop=1;jettySize=auto;html=1;exitX=1;exitY=0.5;exitDx=0;exitDy=0;entryX=-0.067;entryY=0.18;entryDx=0;entryDy=0;entryPerimeter=0;" edge="1" parent="1" source="9y9cuDd97dtnEJHXF65n-11" target="9y9cuDd97dtnEJHXF65n-13">
          <mxGeometry relative="1" as="geometry" />
        </mxCell>
        <mxCell id="9y9cuDd97dtnEJHXF65n-16" value="finishModule" style="edgeLabel;html=1;align=center;verticalAlign=middle;resizable=0;points=[];" vertex="1" connectable="0" parent="9y9cuDd97dtnEJHXF65n-15">
          <mxGeometry x="0.0577" relative="1" as="geometry">
            <mxPoint as="offset" />
          </mxGeometry>
        </mxCell>
        <mxCell id="9y9cuDd97dtnEJHXF65n-11" value="" style="rounded=1;whiteSpace=wrap;html=1;" vertex="1" parent="1">
          <mxGeometry x="125" y="180" width="30" height="100" as="geometry" />
        </mxCell>
        <mxCell id="9y9cuDd97dtnEJHXF65n-12" value="" style="edgeStyle=orthogonalEdgeStyle;rounded=0;orthogonalLoop=1;jettySize=auto;html=1;shape=link;endArrow=none;" edge="1" parent="1" source="9y9cuDd97dtnEJHXF65n-6" target="9y9cuDd97dtnEJHXF65n-11">
          <mxGeometry relative="1" as="geometry">
            <mxPoint x="140" y="660" as="targetPoint" />
            <mxPoint x="140" y="130" as="sourcePoint" />
          </mxGeometry>
        </mxCell>
        <mxCell id="9y9cuDd97dtnEJHXF65n-21" style="edgeStyle=orthogonalEdgeStyle;rounded=0;orthogonalLoop=1;jettySize=auto;html=1;exitX=1;exitY=1;exitDx=0;exitDy=0;entryX=0;entryY=0.75;entryDx=0;entryDy=0;" edge="1" parent="1" source="9y9cuDd97dtnEJHXF65n-13" target="9y9cuDd97dtnEJHXF65n-19">
          <mxGeometry relative="1" as="geometry">
            <Array as="points">
              <mxPoint x="395" y="305" />
            </Array>
          </mxGeometry>
        </mxCell>
        <mxCell id="9y9cuDd97dtnEJHXF65n-22" value="上报章节到课/完成" style="edgeLabel;html=1;align=center;verticalAlign=middle;resizable=0;points=[];" vertex="1" connectable="0" parent="9y9cuDd97dtnEJHXF65n-21">
          <mxGeometry x="0.1224" relative="1" as="geometry">
            <mxPoint as="offset" />
          </mxGeometry>
        </mxCell>
        <mxCell id="9y9cuDd97dtnEJHXF65n-13" value="" style="rounded=1;whiteSpace=wrap;html=1;" vertex="1" parent="1">
          <mxGeometry x="365" y="212" width="30" height="100" as="geometry" />
        </mxCell>
        <mxCell id="9y9cuDd97dtnEJHXF65n-14" value="" style="edgeStyle=orthogonalEdgeStyle;shape=link;rounded=0;orthogonalLoop=1;jettySize=auto;html=1;endArrow=none;" edge="1" parent="1" source="9y9cuDd97dtnEJHXF65n-7" target="9y9cuDd97dtnEJHXF65n-13">
          <mxGeometry relative="1" as="geometry">
            <mxPoint x="380" y="660" as="targetPoint" />
            <mxPoint x="380" y="130" as="sourcePoint" />
          </mxGeometry>
        </mxCell>
        <mxCell id="9y9cuDd97dtnEJHXF65n-17" value="是否是第一个/最后一个环节" style="edgeStyle=orthogonalEdgeStyle;rounded=0;orthogonalLoop=1;jettySize=auto;html=1;entryX=1;entryY=0.75;entryDx=0;entryDy=0;" edge="1" parent="1" source="9y9cuDd97dtnEJHXF65n-13" target="9y9cuDd97dtnEJHXF65n-13">
          <mxGeometry relative="1" as="geometry" />
        </mxCell>
        <mxCell id="9y9cuDd97dtnEJHXF65n-18" style="edgeStyle=orthogonalEdgeStyle;shape=link;rounded=0;orthogonalLoop=1;jettySize=auto;html=1;startArrow=none;exitX=0.5;exitY=1;exitDx=0;exitDy=0;" edge="1" parent="1" source="9y9cuDd97dtnEJHXF65n-23">
          <mxGeometry relative="1" as="geometry">
            <mxPoint x="640" y="600" as="targetPoint" />
            <mxPoint x="640" y="140" as="sourcePoint" />
          </mxGeometry>
        </mxCell>
        <mxCell id="9y9cuDd97dtnEJHXF65n-25" style="edgeStyle=orthogonalEdgeStyle;rounded=0;orthogonalLoop=1;jettySize=auto;html=1;exitX=1;exitY=0.75;exitDx=0;exitDy=0;entryX=1;entryY=0.5;entryDx=0;entryDy=0;" edge="1" parent="1" source="9y9cuDd97dtnEJHXF65n-19" target="9y9cuDd97dtnEJHXF65n-23">
          <mxGeometry relative="1" as="geometry" />
        </mxCell>
        <mxCell id="9y9cuDd97dtnEJHXF65n-26" value="判断是否是第一次" style="edgeLabel;html=1;align=center;verticalAlign=middle;resizable=0;points=[];" vertex="1" connectable="0" parent="9y9cuDd97dtnEJHXF65n-25">
          <mxGeometry x="-0.0815" y="1" relative="1" as="geometry">
            <mxPoint as="offset" />
          </mxGeometry>
        </mxCell>
        <mxCell id="9y9cuDd97dtnEJHXF65n-19" value="" style="rounded=1;whiteSpace=wrap;html=1;" vertex="1" parent="1">
          <mxGeometry x="625" y="230" width="30" height="100" as="geometry" />
        </mxCell>
        <mxCell id="9y9cuDd97dtnEJHXF65n-20" value="" style="edgeStyle=orthogonalEdgeStyle;shape=link;rounded=0;orthogonalLoop=1;jettySize=auto;html=1;startArrow=none;exitX=0.5;exitY=1;exitDx=0;exitDy=0;endArrow=none;" edge="1" parent="1" source="9y9cuDd97dtnEJHXF65n-8" target="9y9cuDd97dtnEJHXF65n-19">
          <mxGeometry relative="1" as="geometry">
            <mxPoint x="640" y="660" as="targetPoint" />
            <mxPoint x="640" y="130" as="sourcePoint" />
          </mxGeometry>
        </mxCell>
        <mxCell id="9y9cuDd97dtnEJHXF65n-28" style="edgeStyle=orthogonalEdgeStyle;rounded=0;orthogonalLoop=1;jettySize=auto;html=1;exitX=1;exitY=0.75;exitDx=0;exitDy=0;" edge="1" parent="1" source="9y9cuDd97dtnEJHXF65n-23">
          <mxGeometry relative="1" as="geometry">
            <mxPoint x="720" y="425" as="targetPoint" />
          </mxGeometry>
        </mxCell>
        <mxCell id="9y9cuDd97dtnEJHXF65n-23" value="" style="rounded=1;whiteSpace=wrap;html=1;" vertex="1" parent="1">
          <mxGeometry x="625" y="350" width="30" height="100" as="geometry" />
        </mxCell>
        <mxCell id="9y9cuDd97dtnEJHXF65n-24" value="" style="edgeStyle=orthogonalEdgeStyle;shape=link;rounded=0;orthogonalLoop=1;jettySize=auto;html=1;startArrow=none;exitX=0.5;exitY=1;exitDx=0;exitDy=0;endArrow=none;" edge="1" parent="1" source="9y9cuDd97dtnEJHXF65n-19" target="9y9cuDd97dtnEJHXF65n-23">
          <mxGeometry relative="1" as="geometry">
            <mxPoint x="640" y="660" as="targetPoint" />
            <mxPoint x="640" y="330" as="sourcePoint" />
          </mxGeometry>
        </mxCell>
        <mxCell id="9y9cuDd97dtnEJHXF65n-29" value="首次到课/完成，&lt;br&gt;记录学生章节完到课状态和完到课时间" style="text;html=1;align=center;verticalAlign=middle;resizable=0;points=[];autosize=1;strokeColor=none;" vertex="1" parent="1">
          <mxGeometry x="680" y="415" width="220" height="30" as="geometry" />
        </mxCell>
      </root>
    </mxGraphModel>
  </diagram>
</mxfile>
